<?xml version="1.0" encoding="iso-8859-1"?>
<!-- Generator: Adobe Illustrator 16.0.0, SVG Export Plug-In . SVG Version: 6.00 Build 0)  -->
<!DOCTYPE svg PUBLIC "-//W3C//DTD SVG 1.1//EN" "http://www.w3.org/Graphics/SVG/1.1/DTD/svg11.dtd">
<svg version="1.1" xmlns="http://www.w3.org/2000/svg" xmlns:xlink="http://www.w3.org/1999/xlink" x="0px" y="0px" width="512px"
	 height="512px" viewBox="0 0 512 512" style="enable-background:new 0 0 512 512;" xml:space="preserve">
<g id="A78_x2C__Natural_x2C__Rock_x2C__Spa_x2C__Square_x2C__Stone">
	<g>
		<g>
			<path style="fill:#FFE678;" d="M475.02,275.25c2.761,4.79,0.53,11.38-4.96,15.6c-2.104,9.683-11.286,18.52-20.319,21.36
				c9.128,2.908,18.229,11.739,20.319,21.36c5.49,4.229,7.721,10.819,4.96,15.6c-2.76,4.79-9.579,6.15-15.989,3.5
				c-9.313,2.988-21.529-0.4-28.66-6.91c2.048,9.432-1.083,21.684-8.34,28.271c-0.92,6.87-5.5,12.109-11.03,12.109
				c-5.52,0-10.11-5.239-11.03-12.109c-7.249-6.579-10.41-18.833-8.34-28.271c-7.063,6.457-19.285,9.92-28.649,6.91
				c-5.627,2.369-12.962,1.755-16-3.5c-2.771-4.78-0.53-11.37,4.97-15.6c2.063-9.491,11.026-18.397,20.319-21.36
				c-9.101-2.884-18.233-11.7-20.319-21.36c-5.5-4.22-7.74-10.81-4.97-15.6c2.77-4.79,9.59-6.15,16-3.5
				c9.434-3.032,21.589,0.501,28.659,6.91c-2.07-9.308,1.017-21.637,8.33-28.26c0.92-6.88,5.511-12.11,11.03-12.11
				c5.53,0,10.11,5.23,11.03,12.11c7.337,6.645,10.365,18.99,8.34,28.27c7.04-6.432,19.228-9.947,28.66-6.92
				C465.44,269.1,472.26,270.46,475.02,275.25z"/>
			<path style="fill:#D7DEED;" d="M405.79,76.14c11.05,0,20,8.95,20,20c0,11.04-8.95,20-20,20c-11.04,0-20-8.96-20-20
				C385.79,85.09,394.75,76.14,405.79,76.14z"/>
			<path style="fill:#57606F;" d="M365.79,386.77v0.011c0,39.43-43.3,71.399-96.72,71.399l-62.37,7.08
				c-7.68,0.87-15.5,0.79-23.14-0.229l-51.04-6.851c-18.81,0-36.36-3.96-51.21-10.819c-27.33-12.61-45.52-35.03-45.52-60.58v-0.011
				c0-21.899,1.73-41.5,22.76-54.6c16.84-10.479,55.91-25.2,79.66-16.8c3.862-1.112,21.021-9.59,48.24-9.93
				c4.34,0.56,8.76,0.72,13.14,0.479c8.41,0.73,16.72,2.271,24.73,4.64c35.927,3.673,40.78,4.879,51.5,4.78
				c31.79-0.31,59.35-2.02,75.319,16.83c0.301,0.35,0.591,0.73,0.88,1.12c-0.02,0.09-0.05,0.19-0.069,0.28
				c-5.5,4.229-7.74,10.819-4.97,15.6c2.439,4.22,8.02,5.771,13.699,4.271C363.99,365.39,365.79,378.74,365.79,386.77z"/>
			<path style="fill:#414A56;" d="M311.44,206.13c6.939,8.19,10.949,30.43,10.949,40.8c0,14.73-8.09,28.07-21.17,37.73
				s-31.149,15.63-51.11,15.63c-49.621,5.597-46.937,5.411-50.52,5.63c-4.36-0.39-8.76-0.55-13.14-0.479
				c-40.536-5.438-19.457-2.611-38.38-5.15c-14.05,0-27.17-2.96-38.26-8.08c-20.43-9.43-34.02-26.18-34.02-45.28
				c0-17.684,1.856-31.372,17.01-40.8c12.58-7.83,41.78-18.83,59.52-12.55l4.79-1.77c18.59-6.86,40.27-7.53,59.56-1.83
				c27.17,2.776,30.541,3.644,38.48,3.57C278.91,193.32,299.5,192.04,311.44,206.13z"/>
			<path style="fill:#57606F;" d="M286.67,102.8c5.78,6.82,9.12,25.35,9.12,33.99c0,12.27-6.74,23.39-17.64,31.44
				c-10.891,8.04-25.95,13.02-42.581,13.02l-38.83,4.41c-4.78,0.54-9.65,0.49-14.41-0.15l-31.77-4.26
				c-11.71,0-22.64-2.47-31.88-6.74c-17.02-7.85-28.34-21.81-28.34-37.72c0-14.7,1.519-26.109,14.17-33.99
				c10.48-6.53,34.8-15.69,49.59-10.46l3.99-1.48c15.49-5.71,33.55-6.27,49.62-1.52c22.009,2.249,25.353,3.044,32.07,2.97
				C259.57,92.12,276.73,91.06,286.67,102.8z"/>
			<path d="M184.879,315.321l-37.494-5.033c-14.779-0.094-29.207-3.2-41.767-8.999C80.68,289.778,65.79,269.457,65.79,246.93
				c0-8.022,0.241-17.31,3.115-26.008c3.276-9.913,9.364-17.529,18.612-23.283c10.28-6.398,32.761-15.919,52.556-15.919
				c4.274,0,8.254,0.448,11.882,1.334l1.688-0.624c20.043-7.396,43.558-8.413,64.97-2.299c27.293,2.818,29.267,3.422,35.761,3.422
				c24.11-0.241,49.229-2.138,64.695,16.111c9.413,11.109,13.32,36.266,13.32,47.266c0,17.502-8.96,33.758-25.229,45.774
				c-15.216,11.238-35.252,17.473-56.471,17.584c-48.954,5.522-46.546,5.373-50.489,5.613
				C195.263,316.172,189.959,315.948,184.879,315.321z M187.785,295.53c4.711,0.607,9.764,0.673,14.576,0.116
				c49.527-5.6,46.674-5.356,47.75-5.356c17.188,0,33.23-4.856,45.169-13.674c11.033-8.149,17.11-18.691,17.11-29.686
				c0-10.348-4.241-29.217-8.579-34.336c-6.504-7.675-17.733-9.177-34.933-9.177c-2.925,0-14.4,0.135-14.503,0.136
				c-8.135,0-11.142-0.799-38.773-3.63c-0.598-0.064-1.189-0.182-1.766-0.353c-7.706-2.277-15.84-3.432-24.176-3.432
				c-19.105,0-31.296,6.083-33.874,6.822c-2.193,0.811-4.599,0.827-6.804,0.047c-13.213-4.679-39.014,4.216-50.898,11.613
				c-5.252,3.268-8.395,7.147-10.189,12.578c-1.747,5.287-2.105,11.711-2.105,19.732c0,14.514,10.546,28.047,28.211,36.201
				c17.209,7.945,33.198,6.951,35.399,7.248C149.4,290.379,134.335,288.357,187.785,295.53z"/>
			<path d="M190.142,196.031c-7.637,0-10.071-0.901-40.269-4.783c-12.514-0.093-24.735-2.737-35.388-7.66
				c-21.378-9.86-34.146-27.355-34.146-46.797c0-6.805,0.207-14.691,2.672-22.178c2.857-8.648,8.159-15.285,16.21-20.3
				c8.723-5.435,27.819-13.521,44.671-13.521c3.496,0,6.774,0.348,9.789,1.038c0.542-0.147,13.545-5.69,31.524-5.69
				c8.387,0,16.605,1.127,24.444,3.353l23.09,2.486c16.571,1.727,45.288-4.861,61.561,14.361
				c8.117,9.578,11.488,31.073,11.488,40.452c0,15.127-7.706,29.149-21.699,39.484c-12.941,9.555-29.947,14.862-47.939,14.974
				l-38.283,4.348C195.315,195.885,192.717,196.031,190.142,196.031z M109.798,111.287c-4.027,2.508-6.43,5.466-7.793,9.591
				c-1.381,4.194-1.665,9.396-1.665,15.912c0,11.427,8.422,22.133,22.528,28.639c14.163,6.545,26.87,5.622,29.021,5.91l31.77,4.26
				c3.933,0.528,8.012,0.571,11.958,0.125c40.997-4.634,38.91-4.473,39.952-4.473c13.963,0,26.976-3.93,36.641-11.065
				c8.756-6.467,13.579-14.776,13.579-23.395c0-8.181-3.4-23.574-6.749-27.525c-5.003-5.909-14.008-7.064-27.872-7.064
				c-3.309,0-5.106,0.044-12.108,0.113c-7.122,0-11.146-0.859-32.421-3.032c-0.597-0.064-1.188-0.182-1.764-0.353
				c-6.266-1.852-12.883-2.791-19.669-2.791c-15.645,0-25.505,4.968-27.628,5.577c-2.194,0.815-4.605,0.833-6.812,0.052
				C140.297,98.067,119.319,105.354,109.798,111.287z"/>
			<path d="M335.79,126.14c-5.522,0-10-4.477-10-10v-50c0-5.523,4.478-10,10-10s10,4.477,10,10v50
				C345.79,121.663,341.313,126.14,335.79,126.14z"/>
			<path d="M365.79,196.14c-5.522,0-10-4.477-10-10v-50c0-5.523,4.478-10,10-10s10,4.477,10,10v50
				C375.79,191.663,371.313,196.14,365.79,196.14z"/>
			<path d="M65.79,106.14c-5.523,0-10-4.477-10-10v-50c0-5.523,4.477-10,10-10s10,4.477,10,10v50
				C75.79,101.663,71.313,106.14,65.79,106.14z"/>
			<path d="M35.79,156.14c-5.523,0-10-4.477-10-10v-30c0-5.523,4.477-10,10-10s10,4.477,10,10v30
				C45.79,151.663,41.313,156.14,35.79,156.14z"/>
			<path d="M55.79,196.14c-5.523,0-10-4.477-10-10v-20c0-5.523,4.477-10,10-10s10,4.477,10,10v20
				C65.79,191.663,61.313,196.14,55.79,196.14z"/>
			<path d="M301.678,405.255c-0.901-0.406-22.103-10.269-25.799-37.784c-0.207-1.544-0.686-3.512-1.787-4.12
				c-3.021-1.667-10.698,0.31-14.145,1.884c-5.025,2.298-10.956,0.086-13.252-4.938c-2.295-5.023-0.084-10.957,4.938-13.252
				c1.921-0.879,19.142-8.369,32.123-1.204c4.631,2.556,10.462,7.921,11.945,18.968c2.179,16.219,13.823,22.03,14.318,22.27
				l-0.117-0.054L301.678,405.255z"/>
			<path d="M85.413,386.133c-5.519-0.209-9.824-4.852-9.615-10.37c0.07-1.857,1.493-18.187,29.485-19.61
				c5.504-0.279,10.214,3.964,10.495,9.479c0.28,5.516-3.963,10.214-9.479,10.495c-7.186,0.365-10,1.922-10.824,2.516
				C94.318,383.134,90.163,386.313,85.413,386.133z"/>
			<path d="M116.223,259.052c-7.63-25.072,6.972-38.54,15.759-42.158l7.615,18.493c0,0,0.075-0.027,0.21-0.09
				c-2.032,0.96-8.359,5.09-4.451,17.932c1.608,5.283-1.372,10.87-6.655,12.479C123.439,267.307,117.839,264.359,116.223,259.052z"
				/>
			<path d="M182.237,474.942l-50.397-6.765c-19.379-0.092-38.286-4.146-54.723-11.739C44.979,441.61,25.79,415.569,25.79,386.78
				c0-23.273,2.121-47.307,27.473-63.099c15.697-9.768,55.979-26.477,84.651-18.858c1.448-0.288,40.092-18.009,88.356-4.111
				c35.818,3.665,39.542,4.712,49.458,4.628c30.786-0.301,63.554-2.636,83.041,20.366c0.472,0.547,0.915,1.133,1.281,1.626
				c3.291,4.436,2.362,10.699-2.073,13.989c-4.437,3.29-10.699,2.362-13.989-2.073c-0.143-0.192-0.281-0.384-0.43-0.557
				c-11.911-14.058-33.712-13.779-61.325-13.427c-7.175,0.094-12.416,0.242-20.487-0.621c-40.432-4.405-38.697-4.031-40.263-4.495
				c-11.188-3.309-23.277-4.892-34.873-4.709c-25.35,0.316-41.357,8.275-44.945,9.314c-2.189,0.807-4.592,0.821-6.79,0.044
				c-18.702-6.616-53.877,5.181-71.042,15.862c-15.342,9.558-18.043,22.483-18.043,46.109c0,20.785,14.845,40.038,39.709,51.511
				c14.022,6.477,30.28,9.899,47.021,9.899c1.263,0-1.518-0.263,52.37,6.939c6.849,0.914,13.811,0.984,20.684,0.204
				c66.082-7.479,62.422-7.144,63.496-7.144c47.817,0,86.72-27.544,86.72-61.399c0-6.524-1.485-18.896-4.747-30.67
				c-1.475-5.322,1.645-10.832,6.967-12.307c5.321-1.479,10.833,1.645,12.307,6.967c3.274,11.816,5.474,26.283,5.474,35.999
				c0,22.336-11.502,43.123-32.388,58.542c-19.838,14.645-46.013,22.756-73.756,22.867l-61.818,7.018
				C199.518,476.137,190.901,476.099,182.237,474.942z"/>
			<path d="M411,396.14c-9.457,0-17.528-7.061-20.236-17.232c-4.016-4.562-6.942-10.433-8.495-16.906
				c-6.337,1.894-12.983,2.292-18.931,1.08c-2.293,0.608-4.529,0.918-6.848,0.918l0,0c-7.819,0-14.611-3.673-18.167-9.824
				c-4.746-8.188-2.67-18.713,4.803-26.146c1.947-5.83,5.536-11.27,10.387-15.838c-4.83-4.583-8.447-10.048-10.388-15.799
				c-7.47-7.422-9.547-17.944-4.801-26.149c4.844-8.378,15.153-11.577,25.033-8.909c5.94-1.203,12.581-0.807,18.912,1.085
				c1.553-6.474,4.48-12.343,8.494-16.9c2.708-10.17,10.779-17.229,20.236-17.229s17.528,7.06,20.236,17.23
				c4.012,4.556,6.937,10.426,8.487,16.905c6.34-1.898,12.981-2.295,18.928-1.09c9.923-2.679,20.212,0.558,25.033,8.923
				c4.727,8.201,2.649,18.718-4.802,26.134c-1.949,5.763-5.578,11.237-10.417,15.822c4.84,4.585,8.47,10.059,10.418,15.818
				c7.452,7.427,9.527,17.946,4.795,26.139c-4.714,8.182-14.891,11.65-25.027,8.914c-5.947,1.206-12.59,0.808-18.927-1.089
				c-1.551,6.477-4.476,12.35-8.487,16.91C428.529,389.079,420.457,396.14,411,396.14z M396.625,337.097
				c3.776,2.178,5.707,6.549,4.772,10.807c-1.315,5.999,0.773,14.621,5.293,18.722c1.747,1.586,2.878,3.739,3.19,6.078
				c0.203,1.515,0.718,2.495,1.121,3.034c0.401-0.539,0.914-1.52,1.117-3.034c0.313-2.339,1.443-4.492,3.19-6.078
				c4.517-4.1,6.597-12.729,5.288-18.744c-0.924-4.254,1.011-8.616,4.783-10.788c3.774-2.174,8.518-1.653,11.731,1.282
				c0.893,0.814,1.785,1.481,2.653,1.981c4.75,2.744,11.161,4.412,16.209,2.792c2.253-0.724,4.688-0.624,6.877,0.28
				c1.258,0.521,2.389,0.642,3.168,0.548c-0.263-0.614-0.851-1.551-2.063-2.484c-1.869-1.439-3.168-3.493-3.669-5.798
				c-1.295-5.956-7.734-12.095-13.583-13.956c-4.155-1.324-6.973-5.187-6.965-9.547s2.841-8.213,7-9.521
				c5.851-1.84,12.261-8.023,13.548-13.945c0.501-2.309,1.805-4.365,3.678-5.805c1.211-0.931,1.797-1.865,2.057-2.478
				c-0.788-0.094-1.917,0.029-3.171,0.548c-2.188,0.904-4.625,1.002-6.877,0.28c-5.024-1.613-11.425,0.027-16.204,2.789
				c-0.856,0.497-1.756,1.171-2.655,1.992c-3.215,2.938-7.962,3.457-11.737,1.282c-3.774-2.175-5.707-6.542-4.778-10.797
				c1.307-5.986-0.769-14.637-5.282-18.727c-1.752-1.586-2.886-3.743-3.199-6.086c-0.203-1.518-0.716-2.499-1.116-3.037
				c-0.402,0.538-0.918,1.519-1.12,3.037c-0.313,2.343-1.447,4.5-3.199,6.086c-4.505,4.08-6.607,12.723-5.281,18.678
				c0.945,4.252-0.97,8.627-4.735,10.816c-3.765,2.188-8.516,1.69-11.742-1.236c-0.918-0.832-1.828-1.512-2.703-2.02
				c-4.779-2.762-11.185-4.385-16.181-2.779c-2.253,0.725-4.691,0.626-6.881-0.279c-0.972-0.402-2.142-0.669-3.182-0.547
				c0.262,0.611,0.85,1.543,2.06,2.472c1.881,1.442,3.188,3.506,3.688,5.822c1.285,5.952,7.704,12.081,13.565,13.938
				c4.152,1.316,6.976,5.169,6.979,9.524c0.004,4.356-2.813,8.214-6.963,9.536c-1.189,0.38-2.194,0.81-3.07,1.315
				c-5.388,3.106-9.397,7.884-10.47,12.472c-0.595,2.604-1.868,4.549-3.721,5.973c-1.207,0.929-1.799,1.86-2.063,2.475
				c0.962,0.108,2.262-0.157,3.117-0.519c2.205-0.926,4.667-1.034,6.94-0.304c5.044,1.62,11.459-0.052,16.199-2.789
				c0.859-0.497,1.749-1.163,2.643-1.981C388.109,335.43,392.861,334.927,396.625,337.097z"/>
			<path d="M405.79,126.14c-16.542,0-30-13.458-30-30s13.458-30,30-30s30,13.458,30,30S422.332,126.14,405.79,126.14z M405.79,86.14
				c-5.514,0-10,4.486-10,10s4.486,10,10,10s10-4.486,10-10S411.304,86.14,405.79,86.14z"/>
		</g>
	</g>
</g>
<g id="Layer_1">
</g>
</svg>
