<svg width="1920" height="1080" viewBox="0 0 1920 1080" xmlns="http://www.w3.org/2000/svg"><rect width="1920" height="1080" fill="#df6688"/><path d="M 0,1080 C 0,1080 0,180 0,180 C 78.72307692307692,218.73076923076923 157.44615384615383,257.46153846153845 272,241 C 386.55384615384617,224.53846153846152 536.9384615384616,152.8846153846154 646,128 C 755.0615384615384,103.11538461538461 822.8,125 934,128 C 1045.2,131 1199.8615384615384,115.11538461538463 1311,118 C 1422.1384615384616,120.88461538461537 1489.7538461538463,142.53846153846152 1584,156 C 1678.2461538461537,169.46153846153848 1799.123076923077,174.73076923076923 1920,180 C 1920,180 1920,1080 1920,1080 Z" fill="#3d1053" opacity="0.09999999999999999"/><path d="M 0,1080 C 0,1080 0,360 0,360 C 119.36666666666665,342.60769230769233 238.7333333333333,325.2153846153846 347,336 C 455.2666666666667,346.7846153846154 552.4333333333333,385.74615384615385 636,390 C 719.5666666666667,394.25384615384615 789.5333333333333,363.8 915,350 C 1040.4666666666667,336.2 1221.4333333333334,339.05384615384617 1325,333 C 1428.5666666666666,326.94615384615383 1454.7333333333331,311.9846153846154 1541,315 C 1627.2666666666669,318.0153846153846 1773.6333333333334,339.0076923076923 1920,360 C 1920,360 1920,1080 1920,1080 Z" fill="#3d1053" opacity="0.19999999999999998"/><path d="M 0,1080 C 0,1080 0,540 0,540 C 106.01025641025643,547.4076923076923 212.02051282051286,554.8153846153846 312,554 C 411.97948717948714,553.1846153846154 505.92820512820504,544.146153846154 622,528 C 738.071794871795,511.85384615384606 876.2666666666667,488.6 985,477 C 1093.7333333333333,465.4 1173.0051282051284,465.4538461538461 1273,479 C 1372.9948717948716,492.5461538461539 1493.7128205128204,519.5846153846154 1605,532 C 1716.2871794871796,544.4153846153846 1818.14358974359,542.2076923076922 1920,540 C 1920,540 1920,1080 1920,1080 Z" fill="#3d1053" opacity="0.3"/><path d="M 0,1080 C 0,1080 0,720 0,720 C 105.40769230769229,693.7128205128206 210.81538461538457,667.4256410256411 317,686 C 423.1846153846154,704.5743589743589 530.1461538461539,768.0102564102564 634,763 C 737.8538461538461,757.9897435897436 838.5999999999999,684.5333333333333 941,687 C 1043.4,689.4666666666667 1147.4538461538461,767.8564102564103 1248,766 C 1348.5461538461539,764.1435897435897 1445.5846153846155,682.0410256410256 1557,661 C 1668.4153846153845,639.9589743589744 1794.2076923076922,679.9794871794873 1920,720 C 1920,720 1920,1080 1920,1080 Z" fill="#3d1053" opacity="0.39999999999999997"/><path d="M 0,1080 C 0,1080 0,900 0,900 C 83.53846153846158,921.1410256410256 167.07692307692315,942.2820512820514 267,925 C 366.92307692307685,907.7179487179486 483.23076923076917,852.0128205128206 609,837 C 734.7692307692308,821.9871794871794 870,847.6666666666666 992,868 C 1114,888.3333333333334 1222.7692307692307,903.3205128205127 1317,923 C 1411.2307692307693,942.6794871794873 1490.923076923077,967.0512820512822 1589,964 C 1687.076923076923,960.9487179487178 1803.5384615384614,930.4743589743589 1920,900 C 1920,900 1920,1080 1920,1080 Z" fill="#3d1053" opacity="0.49999999999999994"/></svg>