<svg width="1920" height="1080" viewBox="0 0 1920 1080" xmlns="http://www.w3.org/2000/svg"><rect width="1920" height="1080" fill="#df6688"/><path d="M 0,1080 C 0,1080 0,180 0,180 C 106.83333333333334,219.63333333333333 213.66666666666669,259.26666666666665 312,236 C 410.3333333333333,212.73333333333332 500.16666666666663,126.56666666666665 610,127 C 719.8333333333334,127.43333333333335 849.6666666666667,214.4666666666667 963,241 C 1076.3333333333333,267.5333333333333 1173.1666666666665,233.56666666666666 1286,217 C 1398.8333333333335,200.43333333333334 1527.6666666666667,201.26666666666665 1636,198 C 1744.3333333333333,194.73333333333335 1832.1666666666665,187.36666666666667 1920,180 C 1920,180 1920,1080 1920,1080 Z" fill="#3d1053" opacity="0.09999999999999999"/><path d="M 0,1080 C 0,1080 0,360 0,360 C 87.91538461538462,340.8948717948718 175.83076923076925,321.7897435897436 291,309 C 406.16923076923075,296.2102564102564 548.5923076923077,289.7358974358974 666,304 C 783.4076923076923,318.2641025641026 875.8000000000002,353.26666666666665 968,382 C 1060.1999999999998,410.73333333333335 1152.2076923076922,433.1974358974359 1250,409 C 1347.7923076923078,384.8025641025641 1451.3692307692309,313.94358974358977 1564,298 C 1676.6307692307691,282.05641025641023 1798.3153846153846,321.0282051282051 1920,360 C 1920,360 1920,1080 1920,1080 Z" fill="#3d1053" opacity="0.19999999999999998"/><path d="M 0,1080 C 0,1080 0,540 0,540 C 138.04615384615386,518.2384615384615 276.0923076923077,496.4769230769231 372,479 C 467.9076923076923,461.5230769230769 521.676923076923,448.33076923076925 614,473 C 706.323076923077,497.66923076923075 837.2,560.2 967,566 C 1096.8,571.8 1225.5230769230768,520.8692307692309 1329,515 C 1432.4769230769232,509.1307692307692 1510.7076923076925,548.3230769230769 1605,560 C 1699.2923076923075,571.6769230769231 1809.6461538461538,555.8384615384616 1920,540 C 1920,540 1920,1080 1920,1080 Z" fill="#3d1053" opacity="0.3"/><path d="M 0,1080 C 0,1080 0,720 0,720 C 117.25641025641022,734.3205128205128 234.51282051282044,748.6410256410256 349,744 C 463.48717948717956,739.3589743589744 575.2051282051283,715.7564102564102 667,714 C 758.7948717948717,712.2435897435898 830.6666666666665,732.3333333333335 931,745 C 1031.3333333333335,757.6666666666665 1160.128205128205,762.9102564102564 1285,767 C 1409.871794871795,771.0897435897436 1530.820512820513,774.025641025641 1636,766 C 1741.179487179487,757.974358974359 1830.5897435897436,738.9871794871794 1920,720 C 1920,720 1920,1080 1920,1080 Z" fill="#3d1053" opacity="0.39999999999999997"/><path d="M 0,1080 C 0,1080 0,900 0,900 C 103.46666666666667,881.4743589743589 206.93333333333334,862.9487179487179 324,859 C 441.06666666666666,855.0512820512821 571.7333333333333,865.6794871794873 664,858 C 756.2666666666667,850.3205128205127 810.1333333333334,824.3333333333333 915,835 C 1019.8666666666666,845.6666666666667 1175.7333333333333,892.9871794871794 1309,894 C 1442.2666666666667,895.0128205128206 1552.9333333333332,849.7179487179487 1651,843 C 1749.0666666666668,836.2820512820513 1834.5333333333333,868.1410256410256 1920,900 C 1920,900 1920,1080 1920,1080 Z" fill="#3d1053" opacity="0.49999999999999994"/></svg>