<svg width="1920" height="1080" viewBox="0 0 1920 1080" xmlns="http://www.w3.org/2000/svg"><rect width="1920" height="1080" fill="#df6688"/><path d="M 0,1080 C 0,1080 0,180 0,180 C 121.73333333333332,201.66923076923078 243.46666666666664,223.33846153846156 360,237 C 476.53333333333336,250.66153846153844 587.8666666666667,256.3153846153846 695,236 C 802.1333333333333,215.6846153846154 905.0666666666666,169.39999999999998 1007,141 C 1108.9333333333334,112.60000000000001 1209.8666666666668,102.0846153846154 1321,129 C 1432.1333333333332,155.9153846153846 1553.4666666666665,220.26153846153846 1655,235 C 1756.5333333333335,249.73846153846154 1838.2666666666669,214.86923076923077 1920,180 C 1920,180 1920,1080 1920,1080 Z" fill="#3d1053" opacity="0.09999999999999999"/><path d="M 0,1080 C 0,1080 0,360 0,360 C 94.28461538461539,353.7153846153846 188.56923076923078,347.4307692307692 306,368 C 423.4307692307692,388.5692307692308 564.0076923076923,435.99230769230775 676,427 C 787.9923076923077,418.00769230769225 871.4000000000001,352.59999999999997 957,350 C 1042.6,347.40000000000003 1130.3923076923077,407.6076923076923 1246,416 C 1361.6076923076923,424.3923076923077 1505.0307692307692,380.96923076923076 1622,363 C 1738.9692307692308,345.03076923076924 1829.4846153846154,352.5153846153846 1920,360 C 1920,360 1920,1080 1920,1080 Z" fill="#3d1053" opacity="0.19999999999999998"/><path d="M 0,1080 C 0,1080 0,540 0,540 C 99.12307692307692,529.4564102564102 198.24615384615385,518.9128205128205 305,527 C 411.75384615384615,535.0871794871795 526.1384615384616,561.8051282051282 652,548 C 777.8615384615384,534.1948717948718 915.2,479.8666666666667 1015,484 C 1114.8,488.1333333333333 1177.0615384615385,550.7282051282052 1261,576 C 1344.9384615384615,601.2717948717948 1450.553846153846,589.2205128205128 1564,577 C 1677.446153846154,564.7794871794872 1798.7230769230769,552.3897435897436 1920,540 C 1920,540 1920,1080 1920,1080 Z" fill="#3d1053" opacity="0.3"/><path d="M 0,1080 C 0,1080 0,720 0,720 C 70.27948717948718,689.1871794871795 140.55897435897435,658.374358974359 260,658 C 379.44102564102565,657.625641025641 548.0435897435898,687.6897435897436 665,715 C 781.9564102564102,742.3102564102564 847.2666666666665,766.8666666666667 928,772 C 1008.7333333333335,777.1333333333333 1104.8897435897436,762.8435897435897 1237,760 C 1369.1102564102564,757.1564102564103 1537.174358974359,765.7589743589743 1657,761 C 1776.825641025641,756.2410256410257 1848.4128205128204,738.1205128205129 1920,720 C 1920,720 1920,1080 1920,1080 Z" fill="#3d1053" opacity="0.39999999999999997"/><path d="M 0,1080 C 0,1080 0,900 0,900 C 80.32307692307694,896.4871794871796 160.64615384615388,892.9743589743591 286,903 C 411.3538461538461,913.0256410256409 581.7384615384615,936.5897435897434 689,920 C 796.2615384615385,903.4102564102566 840.3999999999999,846.6666666666669 943,858 C 1045.6000000000001,869.3333333333331 1206.6615384615384,948.7435897435897 1335,966 C 1463.3384615384616,983.2564102564103 1558.9538461538464,938.3589743589744 1651,917 C 1743.0461538461536,895.6410256410256 1831.5230769230768,897.8205128205128 1920,900 C 1920,900 1920,1080 1920,1080 Z" fill="#3d1053" opacity="0.49999999999999994"/></svg>