<svg width="1920" height="1080" viewBox="0 0 1920 1080" xmlns="http://www.w3.org/2000/svg"><rect width="1920" height="1080" fill="#df6688"/><path d="M 0,1080 C 0,1080 0,180 0,180 C 91.98205128205129,155.57435897435897 183.96410256410257,131.14871794871797 289,148 C 394.0358974358974,164.85128205128203 512.125641025641,222.97948717948714 642,242 C 771.874358974359,261.02051282051286 913.5333333333333,240.93333333333334 1005,221 C 1096.4666666666667,201.06666666666666 1137.7410256410258,181.2871794871795 1240,189 C 1342.2589743589742,196.7128205128205 1505.502564102564,231.9179487179487 1629,235 C 1752.497435897436,238.0820512820513 1836.248717948718,209.04102564102567 1920,180 C 1920,180 1920,1080 1920,1080 Z" fill="#3d1053" opacity="0.09999999999999999"/><path d="M 0,1080 C 0,1080 0,360 0,360 C 117.27435897435902,351.37692307692305 234.54871794871804,342.75384615384615 339,346 C 443.45128205128196,349.24615384615385 535.079487179487,364.3615384615385 620,347 C 704.920512820513,329.6384615384615 783.1333333333334,279.8 905,300 C 1026.8666666666666,320.2 1192.3871794871795,410.4384615384615 1309,413 C 1425.6128205128205,415.5615384615385 1493.3179487179486,330.44615384615383 1587,307 C 1680.6820512820514,283.55384615384617 1800.3410256410257,321.7769230769231 1920,360 C 1920,360 1920,1080 1920,1080 Z" fill="#3d1053" opacity="0.19999999999999998"/><path d="M 0,1080 C 0,1080 0,540 0,540 C 99.22051282051285,554.6666666666667 198.4410256410257,569.3333333333334 288,557 C 377.5589743589743,544.6666666666666 457.4564102564101,505.3333333333333 585,493 C 712.5435897435899,480.6666666666667 887.7333333333333,495.33333333333337 1018,503 C 1148.2666666666667,510.66666666666663 1233.6102564102564,511.33333333333326 1332,501 C 1430.3897435897436,490.66666666666674 1541.825641025641,469.33333333333337 1642,474 C 1742.174358974359,478.66666666666663 1831.0871794871796,509.3333333333333 1920,540 C 1920,540 1920,1080 1920,1080 Z" fill="#3d1053" opacity="0.3"/><path d="M 0,1080 C 0,1080 0,720 0,720 C 84.38461538461539,697.8384615384616 168.76923076923077,675.6769230769231 290,665 C 411.2307692307692,654.3230769230769 569.3076923076924,655.1307692307691 671,667 C 772.6923076923076,678.8692307692309 818.0000000000001,701.8000000000001 907,727 C 995.9999999999999,752.1999999999999 1128.6923076923074,779.6692307692307 1241,771 C 1353.3076923076926,762.3307692307693 1445.2307692307693,717.5230769230769 1555,703 C 1664.7692307692307,688.4769230769231 1792.3846153846152,704.2384615384615 1920,720 C 1920,720 1920,1080 1920,1080 Z" fill="#3d1053" opacity="0.39999999999999997"/><path d="M 0,1080 C 0,1080 0,900 0,900 C 121.76410256410256,926.0307692307692 243.52820512820512,952.0615384615385 337,942 C 430.4717948717949,931.9384615384615 495.6512820512821,885.7846153846152 609,866 C 722.3487179487179,846.2153846153848 883.8666666666666,852.8000000000001 1011,858 C 1138.1333333333334,863.1999999999999 1230.8820512820512,867.0153846153846 1330,858 C 1429.1179487179488,848.9846153846154 1534.6051282051283,827.1384615384616 1634,832 C 1733.3948717948717,836.8615384615384 1826.6974358974358,868.4307692307692 1920,900 C 1920,900 1920,1080 1920,1080 Z" fill="#3d1053" opacity="0.49999999999999994"/></svg>